<?xml version="1.0" encoding="utf-8"?>
<!-- Generator: Adobe Illustrator 23.1.1, SVG Export Plug-In . SVG Version: 6.00 Build 0)  -->
<svg version="1.2" baseProfile="tiny" id="Layer_1" xmlns="http://www.w3.org/2000/svg" xmlns:xlink="http://www.w3.org/1999/xlink"
	 x="0px" y="0px" width="49.38px" height="53.32px" viewBox="0 0 49.38 53.32" xml:space="preserve">
<g id="breadboard">
	<g>
		<path fill="#131313" d="M0,0v53.32h49.38V0H0z M6.72,50.94c-2.35,0-4.26-1.91-4.26-4.26s1.91-4.26,4.26-4.26
			c2.35,0,4.26,1.91,4.26,4.26S9.07,50.94,6.72,50.94z M21.09,48.13c-1.13,0-2.05-0.92-2.05-2.05s0.92-2.05,2.05-2.05
			s2.05,0.92,2.05,2.05S22.22,48.13,21.09,48.13z M28.29,48.13c-1.13,0-2.05-0.92-2.05-2.05s0.92-2.05,2.05-2.05
			s2.05,0.92,2.05,2.05S29.42,48.13,28.29,48.13z M42.66,50.94c-2.35,0-4.26-1.91-4.26-4.26s1.91-4.26,4.26-4.26
			c2.35,0,4.26,1.91,4.26,4.26S45.01,50.94,42.66,50.94z"/>
		<circle fill="#9A916C" cx="41.68" cy="13.54" r="3.5"/>
		<circle fill="#9A916C" cx="41.68" cy="29.54" r="3.5"/>
		<circle fill="#9A916C" cx="7.7" cy="29.54" r="3.5"/>
		<circle fill="#9A916C" cx="7.7" cy="13.54" r="3.5"/>
		<rect x="6.3" y="12.15" width="36.98" height="3"/>
		<rect x="6.3" y="28.14" width="36.98" height="3"/>
		<rect x="6.2" y="12.05" fill="#BBBBBB" width="36.98" height="3"/>
		<rect x="6.2" y="28.04" fill="#BBBBBB" width="36.98" height="3"/>
		<path fill="#222222" d="M40.18,39.03H9.2c-1.1,0-2-0.9-2-2V6.05c0-1.1,0.9-2,2-2h30.98c1.1,0,2,0.9,2,2v30.98
			C42.18,38.13,41.28,39.03,40.18,39.03z"/>
		<path d="M39.18,37.03H10.2c-0.6,0-1-0.4-1-1V7.05c0-0.6,0.4-1,1-1h28.98c0.6,0,1,0.4,1,1v28.98
			C40.18,36.63,39.78,37.03,39.18,37.03z"/>
		<path fill="#7A7A7A" d="M37.18,36.03H12.2c-1.1,0-2-0.9-2-2V9.05c0-1.1,0.9-2,2-2h24.99c1.1,0,2,0.9,2,2v24.99
			C39.18,35.13,38.28,36.03,37.18,36.03z"/>
		<circle fill="#333333" cx="24.89" cy="21.74" r="9.99"/>
		<circle fill="#222222" cx="24.69" cy="21.54" r="9.99"/>
		<circle cx="13.7" cy="10.55" r="2.5"/>
		<circle cx="35.68" cy="10.55" r="2.5"/>
		<circle cx="35.68" cy="32.53" r="2.5"/>
		<circle cx="13.7" cy="32.53" r="2.5"/>
	</g>
	
		<circle id="connector1pin_1_" fill="none" stroke="#9A916C" stroke-width="1.4991" stroke-miterlimit="3.9977" cx="28.29" cy="46.08" r="2.05"/>
	
		<circle id="connector0pin" fill="none" stroke="#9A916C" stroke-width="1.4991" stroke-miterlimit="3.9977" cx="21.09" cy="46.08" r="2.05"/>
</g>
</svg>
